<svg width="32" height="32" viewBox="0 0 32 32" fill="none" xmlns="http://www.w3.org/2000/svg">
<g style="mix-blend-mode:darken">
<path d="M0 0H6V2H4V4H2V6H0V0Z" fill="white"/>
<path d="M6 0H12V2H14V4H18V2H20V0H26V2H28V4H30V6H32V12H30V16H28V20H26V22H24V24H22V26H20V28H18V30H16V28H14V26H12V24H10V22H8V20H6V18H4V16H2V12H0V6H2V4H4V2H6V0Z" fill="#1A1A1A"/>
<path d="M12 0H20V2H18V4H14V2H12V0Z" fill="white"/>
<path d="M26 0H32V6H30V4H28V2H26V0Z" fill="white"/>
<path d="M0 12H2V16H4V18H6V20H8V22H10V24H12V26H14V28H16V30H18V28H20V26H22V24H24V22H26V20H28V16H30V12H32V20H30V24H28V26H24V28H28V26H30V24H32V28H30V30H26V32H8V30H4V28H2V26H0V12Z" fill="white"/>
<path d="M2 20H4V24H2V20Z" fill="#1A1A1A"/>
<path d="M30 20H32V24H30V20Z" fill="#1A1A1A"/>
<path d="M4 24H6V26H4V24Z" fill="#1A1A1A"/>
<path d="M28 24H30V26H28V24Z" fill="#1A1A1A"/>
<path d="M0 26H2V28H0V26Z" fill="#1A1A1A"/>
<path d="M6 26H10V28H6V26Z" fill="#1A1A1A"/>
<path d="M24 26H28V28H24V26Z" fill="#1A1A1A"/>
<path d="M0 28H2V30H4V32H0V28Z" fill="white"/>
<path d="M2 28H4V30H2V28Z" fill="#1A1A1A"/>
<path d="M30 28H32V30H30V28Z" fill="#1A1A1A"/>
<path d="M4 30H8V32H4V30Z" fill="#1A1A1A"/>
<path d="M26 30H30V32H26V30Z" fill="#1A1A1A"/>
<path d="M30 30H32V32H30V30Z" fill="white"/>
</g>
</svg>
