<svg width="32" height="32" viewBox="0 0 32 32" fill="none" xmlns="http://www.w3.org/2000/svg">
<path d="M0 0H14V4H12V6H14V8H16V6H14V4H16V0H22V2H20V6H22V8H20V10H22V12H8V10H4V18H6V22H8V24H2V26H0V0Z" fill="white"/>
<path d="M14 0H16V4H14V0Z" fill="#1A1A1A"/>
<path d="M22 0H24V2H22V0Z" fill="#1A1A1A"/>
<path d="M24 0H32V10H30V8H26V10H22V8H24V6H22V2H24V0Z" fill="white"/>
<path d="M6 2H8V6H6V2Z" fill="#1A1A1A"/>
<path d="M20 2H22V6H20V2Z" fill="#1A1A1A"/>
<path d="M12 4H14V6H12V4Z" fill="#1A1A1A"/>
<path d="M8 6H10V8H8V6Z" fill="#1A1A1A"/>
<path d="M14 6H16V8H14V6Z" fill="#1A1A1A"/>
<path d="M22 6H24V8H22V6Z" fill="#1A1A1A"/>
<path d="M20 8H22V10H20V8Z" fill="#1A1A1A"/>
<path d="M26 8H30V10H26V8Z" fill="#1A1A1A"/>
<path d="M4 10H8V12H22V10H26V18H28V20H24V14H22V16H8V14H6V18H4V10Z" fill="#1A1A1A"/>
<path d="M26 10H30V16H28V18H26V10Z" fill="white"/>
<path d="M30 10H32V16H30V10Z" fill="#1A1A1A"/>
<path d="M6 14H8V16H22V14H24V20H22V22H20V24H18V26H12V24H10V22H8V18H6V14Z" fill="white"/>
<path d="M28 16H30V18H28V16Z" fill="#1A1A1A"/>
<path d="M30 16H32V26H30V24H22V22H24V20H28V18H30V16Z" fill="white"/>
<path d="M6 18H8V22H6V18Z" fill="#1A1A1A"/>
<path d="M22 20H24V22H22V20Z" fill="#1A1A1A"/>
<path d="M8 22H10V24H12V26H18V24H20V22H22V24H30V26H22V28H8V26H2V24H8V22Z" fill="#1A1A1A"/>
<path d="M0 26H2V28H4V30H0V26Z" fill="#1A1A1A"/>
<path d="M2 26H8V28H22V26H30V28H28V30H4V28H2V26Z" fill="white"/>
<path d="M30 26H32V30H28V28H30V26Z" fill="#1A1A1A"/>
<path d="M0 30H4V32H0V30Z" fill="white"/>
<path d="M4 30H28V32H4V30Z" fill="#1A1A1A"/>
<path d="M28 30H32V32H28V30Z" fill="white"/>
</svg>
