<svg width="32" height="32" viewBox="0 0 32 32" fill="none" xmlns="http://www.w3.org/2000/svg">
<path d="M0 0H2V2H0V0Z" fill="white"/>
<path d="M2 0H10V2H12V6H20V2H22V0H30V2H24V4H22V8H20V12H18V8H14V12H12V8H10V4H8V2H2V0Z" fill="#1A1A1A"/>
<path d="M10 0H22V2H20V6H12V2H10V0Z" fill="white"/>
<path d="M30 0H32V2H30V0Z" fill="white"/>
<path d="M0 2H2V8H0V2Z" fill="#1A1A1A"/>
<path d="M2 2H8V4H10V8H12V12H14V8H18V12H20V8H22V4H24V8H28V10H26V12H28V16H24V18H22V20H24V22H28V20H24V18H28V16H30V24H26V26H22V28H8V26H4V24H2V16H4V12H6V10H8V6H6V4H4V8H2V2Z" fill="white"/>
<path d="M24 2H30V8H28V4H24V2Z" fill="white"/>
<path d="M30 2H32V8H30V2Z" fill="#1A1A1A"/>
<path d="M4 4H6V6H8V10H6V8H4V4Z" fill="#1A1A1A"/>
<path d="M24 4H28V8H24V4Z" fill="#1A1A1A"/>
<path d="M0 8H2V10H4V12H2V16H0V8Z" fill="white"/>
<path d="M2 8H4V10H2V8Z" fill="#1A1A1A"/>
<path d="M4 8H6V10H4V8Z" fill="white"/>
<path d="M28 8H30V10H28V8Z" fill="#1A1A1A"/>
<path d="M30 8H32V16H30V12H28V10H30V8Z" fill="white"/>
<path d="M4 10H6V12H4V10Z" fill="#1A1A1A"/>
<path d="M26 10H28V12H26V10Z" fill="#1A1A1A"/>
<path d="M2 12H4V16H2V12Z" fill="#1A1A1A"/>
<path d="M28 12H30V16H28V12Z" fill="#1A1A1A"/>
<path d="M12 14H14V16H12V14Z" fill="#1A1A1A"/>
<path d="M16 14H18V16H16V14Z" fill="#1A1A1A"/>
<path d="M0 16H2V24H0V16Z" fill="#1A1A1A"/>
<path d="M4 16H8V18H4V16Z" fill="#1A1A1A"/>
<path d="M24 16H28V18H24V16Z" fill="#1A1A1A"/>
<path d="M30 16H32V24H30V16Z" fill="#1A1A1A"/>
<path d="M8 18H10V20H8V18Z" fill="#1A1A1A"/>
<path d="M12 18H18V20H16V22H14V20H12V18Z" fill="#1A1A1A"/>
<path d="M22 18H24V20H22V18Z" fill="#1A1A1A"/>
<path d="M4 20H8V22H4V20Z" fill="#1A1A1A"/>
<path d="M24 20H28V22H24V20Z" fill="#1A1A1A"/>
<path d="M10 22H12V24H10V22Z" fill="#1A1A1A"/>
<path d="M18 22H20V24H18V22Z" fill="#1A1A1A"/>
<path d="M0 24H2V26H4V28H8V30H22V28H26V26H30V24H32V32H0V24Z" fill="white"/>
<path d="M2 24H4V26H2V24Z" fill="#1A1A1A"/>
<path d="M12 24H18V26H12V24Z" fill="#1A1A1A"/>
<path d="M26 24H30V26H26V24Z" fill="#1A1A1A"/>
<path d="M4 26H8V28H4V26Z" fill="#1A1A1A"/>
<path d="M22 26H26V28H22V26Z" fill="#1A1A1A"/>
<path d="M8 28H22V30H8V28Z" fill="#1A1A1A"/>
</svg>
