<svg width="500" height="500" viewBox="0 0 500 500" fill="none" xmlns="http://www.w3.org/2000/svg">
<path d="M30 15.0917C30 6.75677 23.2843 0 15 0C6.71572 0 0 6.75677 0 15.0917C0 22.6242 5.48525 28.8678 12.6562 30V19.4541H8.84766V15.0917H12.6562V11.7668C12.6562 7.98444 14.8957 5.89518 18.322 5.89518C19.9626 5.89518 21.6797 6.18994 21.6797 6.18994V9.90391H19.7883C17.925 9.90391 17.3438 11.0673 17.3438 12.262V15.0917H21.5039L20.8389 19.4541H17.3438V30C24.5147 28.8678 30 22.6242 30 15.0917Z" fill="black"/>
<path fill-rule="evenodd" clip-rule="evenodd" d="M114.995 0C111.434 0.00190514 107.99 1.30242 105.278 3.66901C102.566 6.03559 100.764 9.31392 100.194 12.9178C99.6233 16.5217 100.322 20.2161 102.164 23.3404C104.007 26.4648 106.873 28.8153 110.251 29.9718C110.996 30.1144 111.277 29.6381 111.277 29.2332C111.277 28.8283 111.262 27.6543 111.257 26.3708C107.084 27.3003 106.202 24.555 106.202 24.555C105.521 22.7723 104.538 22.3037 104.538 22.3037C103.177 21.3513 104.64 21.3691 104.64 21.3691C106.147 21.4786 106.94 22.9557 106.94 22.9557C108.276 25.3063 110.449 24.6263 111.304 24.229C111.438 23.2333 111.828 22.5559 112.258 22.1713C108.924 21.7842 105.422 20.465 105.422 14.572C105.401 13.0437 105.955 11.5658 106.967 10.4439C106.813 10.0568 106.299 8.49315 107.114 6.36922C107.114 6.36922 108.373 5.95666 111.239 7.94561C113.698 7.25626 116.292 7.25626 118.751 7.94561C121.615 5.95666 122.872 6.36922 122.872 6.36922C123.689 8.48805 123.175 10.0517 123.021 10.4439C124.036 11.5659 124.591 13.0465 124.568 14.5771C124.568 20.4829 121.058 21.7842 117.72 22.1637C118.256 22.6424 118.736 23.5771 118.736 25.0134C118.736 27.0711 118.718 28.7264 118.718 29.2332C118.718 29.6432 118.989 30.122 119.749 29.9718C123.127 28.8152 125.994 26.4642 127.836 23.3393C129.679 20.2144 130.377 16.5195 129.806 12.9153C129.235 9.31107 127.432 6.03271 124.719 3.66653C122.007 1.30036 118.561 0.000697569 115 0H114.995Z" fill="black"/>
<path d="M65.0088 2.7017C69.019 2.7017 69.4938 2.71928 71.0709 2.78961C72.5366 2.85407 73.3281 3.10022 73.8558 3.30533C74.5534 3.57492 75.0576 3.90311 75.5794 4.42469C76.1071 4.95214 76.4295 5.45028 76.6992 6.14769C76.9044 6.67513 77.1507 7.47216 77.2152 8.93143C77.2855 10.5138 77.3031 10.9885 77.3031 14.9912C77.3031 18.9998 77.2855 19.4745 77.2152 21.051C77.1507 22.5161 76.9044 23.3073 76.6992 23.8347C76.4295 24.5321 76.1012 25.0361 75.5794 25.5577C75.0518 26.0852 74.5534 26.4075 73.8558 26.6771C73.3281 26.8822 72.5308 27.1283 71.0709 27.1928C69.488 27.2631 69.0131 27.2807 65.0088 27.2807C60.9986 27.2807 60.5237 27.2631 58.9466 27.1928C57.4809 27.1283 56.6895 26.8822 56.1618 26.6771C55.4641 26.4075 54.9599 26.0793 54.4381 25.5577C53.9105 25.0303 53.588 24.5321 53.3184 23.8347C53.1132 23.3073 52.8669 22.5103 52.8024 21.051C52.7321 19.4686 52.7145 18.9939 52.7145 14.9912C52.7145 10.9826 52.7321 10.5079 52.8024 8.93143C52.8669 7.4663 53.1132 6.67513 53.3184 6.14769C53.588 5.45028 53.9164 4.94628 54.4381 4.42469C54.9658 3.89725 55.4641 3.57492 56.1618 3.30533C56.6895 3.10022 57.4868 2.85407 58.9466 2.78961C60.5237 2.71928 60.9986 2.7017 65.0088 2.7017ZM65.0088 0C60.9341 0 60.4241 0.0175816 58.8235 0.0879078C57.2288 0.158234 56.1325 0.416097 55.1827 0.78531C54.1919 1.1721 53.3535 1.68197 52.521 2.52002C51.6826 3.35222 51.1726 4.19027 50.7856 5.17484C50.4163 6.1301 50.1583 7.22016 50.0879 8.81422C50.0176 10.42 50 10.9299 50 15.0029C50 19.076 50.0176 19.5859 50.0879 21.1858C50.1583 22.7798 50.4163 23.8758 50.7856 24.8252C51.1726 25.8156 51.6826 26.6536 52.521 27.4858C53.3535 28.318 54.1919 28.8338 55.1769 29.2147C56.1325 29.5839 57.223 29.8418 58.8177 29.9121C60.4182 29.9824 60.9283 30 65.0029 30C69.0776 30 69.5876 29.9824 71.1882 29.9121C72.7829 29.8418 73.8792 29.5839 74.829 29.2147C75.814 28.8338 76.6523 28.318 77.4849 27.4858C78.3174 26.6536 78.8333 25.8156 79.2144 24.831C79.5837 23.8758 79.8417 22.7857 79.9121 21.1916C79.9824 19.5917 80 19.0819 80 15.0088C80 10.9357 79.9824 10.4259 79.9121 8.82594C79.8417 7.23188 79.5837 6.13596 79.2144 5.18656C78.845 4.19027 78.335 3.35222 77.4966 2.52002C76.6641 1.68783 75.8257 1.1721 74.8407 0.79117C73.8851 0.421957 72.7946 0.164095 71.1999 0.0937683C69.5935 0.0175816 69.0834 0 65.0088 0Z" fill="black"/>
<path d="M65.0088 7.29633C60.7524 7.29633 57.2992 10.7482 57.2992 15.0029C57.2992 19.2576 60.7524 22.7095 65.0088 22.7095C69.2652 22.7095 72.7184 19.2576 72.7184 15.0029C72.7184 10.7482 69.2652 7.29633 65.0088 7.29633ZM65.0088 20.0019C62.2474 20.0019 60.0078 17.7632 60.0078 15.0029C60.0078 12.2426 62.2474 10.0039 65.0088 10.0039C67.7702 10.0039 70.0098 12.2426 70.0098 15.0029C70.0098 17.7632 67.7702 20.0019 65.0088 20.0019Z" fill="black"/>
<path d="M74.8232 6.99156C74.8232 7.98785 74.0141 8.79075 73.0233 8.79075C72.0266 8.79075 71.2234 7.98199 71.2234 6.99156C71.2234 5.99528 72.0325 5.19238 73.0233 5.19238C74.0141 5.19238 74.8232 6.00114 74.8232 6.99156Z" fill="black"/>
<path fill-rule="evenodd" clip-rule="evenodd" d="M165 0C156.719 0 150 6.71909 150 15C150 23.2809 156.719 30 165 30C173.265 30 180 23.2809 180 15C180 6.71909 173.265 0 165 0ZM174.908 6.91432C176.697 9.09436 177.771 11.8763 177.804 14.8861C177.381 14.8048 173.151 13.9425 168.888 14.4794C168.791 14.2679 168.709 14.0401 168.612 13.8124C168.351 13.1942 168.059 12.5597 167.766 11.9577C172.484 10.038 174.631 7.27223 174.908 6.91432ZM165 2.21258C168.254 2.21258 171.231 3.43276 173.492 5.43384C173.265 5.75922 171.329 8.34599 166.773 10.0542C164.675 6.19848 162.348 3.0423 161.99 2.55423C162.95 2.32646 163.959 2.21258 165 2.21258ZM159.55 3.41648C159.892 3.87202 162.169 7.04447 164.3 10.8188C158.313 12.4133 153.026 12.3807 152.457 12.3807C153.286 8.41106 155.971 5.10846 159.55 3.41648ZM152.18 15.0163C152.18 14.8861 152.18 14.756 152.18 14.6258C152.733 14.6421 158.948 14.7234 165.342 12.8037C165.716 13.5195 166.057 14.2516 166.383 14.9837C166.22 15.0325 166.041 15.0814 165.879 15.1301C159.273 17.2613 155.759 23.0857 155.466 23.5737C153.433 21.3124 152.18 18.3026 152.18 15.0163ZM165 27.8199C162.039 27.8199 159.306 26.8113 157.142 25.1193C157.37 24.6475 159.973 19.6367 167.196 17.115C167.229 17.0987 167.245 17.0987 167.278 17.0825C169.083 21.7516 169.816 25.6724 170.011 26.795C168.465 27.462 166.773 27.8199 165 27.8199ZM172.142 25.6237C172.012 24.8427 171.329 21.1009 169.653 16.4967C173.671 15.8622 177.185 16.9035 177.625 17.0499C177.072 20.6128 175.022 23.6876 172.142 25.6237Z" fill="black"/>
<path d="M220.804 132H215.759C215.512 132 215.313 132.2 215.313 132.446V150.553C215.313 150.8 215.512 151 215.759 151H220.804C221.05 151 221.25 150.8 221.25 150.553V132.446C221.25 132.2 221.05 132 220.804 132Z" fill="white"/>
<path d="M212.491 132H207.446C207.2 132 207 132.2 207 132.446V150.553C207 150.8 207.2 151 207.446 151H212.491C212.738 151 212.938 150.8 212.938 150.553V132.446C212.938 132.2 212.738 132 212.491 132Z" fill="white"/>
<path fill-rule="evenodd" clip-rule="evenodd" d="M191.19 132.118L202.278 139.181C202.397 139.258 202.495 139.366 202.563 139.495C202.631 139.624 202.667 139.769 202.667 139.917C202.667 140.065 202.631 140.21 202.563 140.339C202.495 140.468 202.397 140.576 202.278 140.653L191.19 147.716C191.101 147.773 191.001 147.81 190.898 147.825C190.795 147.841 190.69 147.834 190.589 147.806C190.488 147.778 190.394 147.728 190.311 147.661C190.229 147.593 190.16 147.509 190.109 147.413C190.037 147.281 190 147.131 190 146.979V132.853C190 132.383 190.354 132 190.789 132C190.931 132 191.068 132.041 191.19 132.118V132.118Z" fill="white"/>
<path d="M157.917 147.833C162.289 147.833 165.833 144.289 165.833 139.917C165.833 135.544 162.289 132 157.917 132C153.544 132 150 135.544 150 139.917C150 144.289 153.544 147.833 157.917 147.833Z" fill="white"/>
<path d="M184.333 139.917C184.333 143.46 181.46 146.333 177.917 146.333C174.373 146.333 171.5 143.46 171.5 139.917C171.5 136.373 174.373 133.5 177.917 133.5C181.46 133.5 184.333 136.373 184.333 139.917Z" stroke="white" stroke-width="3"/>
<path d="M121 173L101 153L121 133" stroke="white"/>
<path d="M122 133L142 153L122 173" stroke="white"/>
<path d="M19.269 50L20 50.7431L1.505 68.5L20 86.2569L19.269 87L0 68.5L19.269 50Z" fill="white"/>
<path d="M30.731 87L30 86.2569L48.495 68.5L30 50.7431L30.731 50L50 68.5L30.731 87Z" fill="white"/>
<path d="M120.44 50H116.977C116.667 50 116.417 50.2495 116.417 50.5572V64.0339C116.417 64.3416 116.667 64.5911 116.977 64.5911H120.44C120.749 64.5911 121 64.3416 121 64.0339V50.5572C121 50.2495 120.749 50 120.44 50Z" fill="white"/>
<path d="M114.023 50H110.56C110.251 50 110 50.2495 110 50.5572V64.0339C110 64.3416 110.251 64.5911 110.56 64.5911H114.023C114.333 64.5911 114.583 64.3416 114.583 64.0339V50.5572C114.583 50.2495 114.333 50 114.023 50Z" fill="white"/>
<path fill-rule="evenodd" clip-rule="evenodd" d="M90.2564 64.5651C90.1735 64.6198 90.0685 64.5852 90.022 64.4876C90.0076 64.4574 90.0001 64.424 90 64.39V50.2006C90 50.0912 90.077 50 90.1718 50C90.2014 50 90.231 50.0091 90.2564 50.0255L100.824 56.9442C100.878 56.9825 100.923 57.0346 100.953 57.0959C100.984 57.1572 101 57.2257 101 57.2953C101 57.3649 100.984 57.4335 100.953 57.4947C100.923 57.556 100.878 57.6081 100.824 57.6464L90.2555 64.5651H90.2564Z" fill="white"/>
<circle cx="57" cy="57" r="7" fill="white"/>
<circle cx="77" cy="57" r="5" stroke="white" stroke-width="4"/>
</svg>
